<mxfile host="app.diagrams.net" agent="Mozilla/5.0 (Windows NT 10.0; Win64; x64) AppleWebKit/537.36 (KHTML, like Gecko) Chrome/141.0.0.0 Safari/537.36" version="26.1.2">
  <diagram id="ChenER" name="Chen-ER">
    <mxGraphModel dx="1290" dy="530" grid="1" gridSize="10" guides="1" tooltips="1" connect="1" arrows="1" fold="1" page="1" pageScale="1" pageWidth="1400" pageHeight="900" math="0" shadow="0">
      <root>
        <mxCell id="0" />
        <mxCell id="1" parent="0" />
        <mxCell id="ent_tarjeta" value="Tarjeta" style="shape=rectangle;whiteSpace=wrap;html=1;fontStyle=1;rounded=0;" parent="1" vertex="1">
          <mxGeometry x="240" y="320" width="160" height="70" as="geometry" />
        </mxCell>
        <mxCell id="attr_numero" value="&lt;u&gt;numero&lt;/u&gt;" style="ellipse;whiteSpace=wrap;html=1;" parent="1" vertex="1">
          <mxGeometry x="160" y="250" width="90" height="40" as="geometry" />
        </mxCell>
        <mxCell id="edge_numero" style="endArrow=none;html=1;" parent="1" source="ent_tarjeta" target="attr_numero" edge="1">
          <mxGeometry relative="1" as="geometry" />
        </mxCell>
        <mxCell id="attr_nombre" value="nombre_titular" style="ellipse;whiteSpace=wrap;html=1;" parent="1" vertex="1">
          <mxGeometry x="250" y="230" width="120" height="40" as="geometry" />
        </mxCell>
        <mxCell id="edge_nombre" style="endArrow=none;html=1;" parent="1" source="ent_tarjeta" target="attr_nombre" edge="1">
          <mxGeometry relative="1" as="geometry" />
        </mxCell>
  <mxCell id="attr_nombre_norm" value="nombre_titular_normalizado" style="ellipse;whiteSpace=wrap;html=1;" parent="1" vertex="1">
          <mxGeometry x="380" y="270" width="170" height="42" as="geometry" />
        </mxCell>
  <mxCell id="edge_nombre_norm" style="endArrow=none;html=1;" parent="1" source="ent_tarjeta" target="attr_nombre_norm" edge="1">
          <mxGeometry relative="1" as="geometry" />
        </mxCell>
        <mxCell id="attr_fecha_venc" value="fecha_venc" style="ellipse;whiteSpace=wrap;html=1;" parent="1" vertex="1">
          <mxGeometry x="100" y="335" width="100" height="40" as="geometry" />
        </mxCell>
        <mxCell id="edge_fecha_venc" style="endArrow=none;html=1;" parent="1" source="ent_tarjeta" target="attr_fecha_venc" edge="1">
          <mxGeometry relative="1" as="geometry" />
        </mxCell>
  <mxCell id="attr_cvv_hmac" value="cvv_hmac" style="ellipse;whiteSpace=wrap;html=1;" parent="1" vertex="1">
          <mxGeometry x="420" y="360" width="100" height="40" as="geometry" />
        </mxCell>
  <mxCell id="edge_cvv_hmac" style="endArrow=none;html=1;" parent="1" source="ent_tarjeta" target="attr_cvv_hmac" edge="1">
          <mxGeometry relative="1" as="geometry" />
        </mxCell>
        <mxCell id="attr_monto_aut" value="monto_autorizado" style="ellipse;whiteSpace=wrap;html=1;" parent="1" vertex="1">
          <mxGeometry x="170" y="420" width="130" height="40" as="geometry" />
        </mxCell>
        <mxCell id="edge_monto_aut" style="endArrow=none;html=1;" parent="1" source="ent_tarjeta" target="attr_monto_aut" edge="1">
          <mxGeometry relative="1" as="geometry" />
        </mxCell>
        <mxCell id="attr_monto_disp" value="monto_disponible" style="ellipse;whiteSpace=wrap;html=1;" parent="1" vertex="1">
          <mxGeometry x="330" y="425" width="130" height="40" as="geometry" />
        </mxCell>
        <mxCell id="edge_monto_disp" style="endArrow=none;html=1;" parent="1" source="ent_tarjeta" target="attr_monto_disp" edge="1">
          <mxGeometry relative="1" as="geometry" />
        </mxCell>
        <mxCell id="attr_estado" value="estado" style="ellipse;whiteSpace=wrap;html=1;" parent="1" vertex="1">
          <mxGeometry x="420" y="320" width="80" height="40" as="geometry" />
        </mxCell>
        <mxCell id="edge_estado" style="endArrow=none;html=1;" parent="1" source="ent_tarjeta" target="attr_estado" edge="1">
          <mxGeometry relative="1" as="geometry" />
        </mxCell>
  <mxCell id="attr_creada" value="creada_en" style="ellipse;whiteSpace=wrap;html=1;" parent="1" vertex="1">
          <mxGeometry x="210" y="500" width="100" height="40" as="geometry" />
        </mxCell>
  <mxCell id="edge_creada" style="endArrow=none;html=1;" parent="1" source="ent_tarjeta" target="attr_creada" edge="1">
          <mxGeometry relative="1" as="geometry" />
        </mxCell>
  <mxCell id="attr_actualizada" value="actualizada_en" style="ellipse;whiteSpace=wrap;html=1;" parent="1" vertex="1">
          <mxGeometry x="350" y="500" width="130" height="40" as="geometry" />
        </mxCell>
  <mxCell id="edge_actualizada" style="endArrow=none;html=1;" parent="1" source="ent_tarjeta" target="attr_actualizada" edge="1">
          <mxGeometry relative="1" as="geometry" />
        </mxCell>
        <mxCell id="ent_tx" value="Transaccion" style="shape=rectangle;whiteSpace=wrap;html=1;fontStyle=1;rounded=0;" parent="1" vertex="1">
          <mxGeometry x="880" y="320" width="170" height="70" as="geometry" />
        </mxCell>
        <mxCell id="attr_id" value="&lt;u&gt;id&lt;/u&gt;" style="ellipse;whiteSpace=wrap;html=1;" parent="1" vertex="1">
          <mxGeometry x="810" y="250" width="70" height="40" as="geometry" />
        </mxCell>
        <mxCell id="edge_id" style="endArrow=none;html=1;" parent="1" source="ent_tx" target="attr_id" edge="1">
          <mxGeometry relative="1" as="geometry" />
        </mxCell>
        <mxCell id="attr_tarjeta_num" value="tarjeta_numero (FK)" style="ellipse;whiteSpace=wrap;html=1;" parent="1" vertex="1">
          <mxGeometry x="930" y="230" width="150" height="44" as="geometry" />
        </mxCell>
        <mxCell id="edge_tarjeta_num" style="endArrow=none;html=1;" parent="1" source="ent_tx" target="attr_tarjeta_num" edge="1">
          <mxGeometry relative="1" as="geometry" />
        </mxCell>
        <mxCell id="attr_tipo" value="tipo" style="ellipse;whiteSpace=wrap;html=1;" parent="1" vertex="1">
          <mxGeometry x="1060" y="300" width="70" height="40" as="geometry" />
        </mxCell>
        <mxCell id="edge_tipo" style="endArrow=none;html=1;" parent="1" source="ent_tx" target="attr_tipo" edge="1">
          <mxGeometry relative="1" as="geometry" />
        </mxCell>
        <mxCell id="attr_monto" value="monto" style="ellipse;whiteSpace=wrap;html=1;" parent="1" vertex="1">
          <mxGeometry x="1080" y="360" width="80" height="40" as="geometry" />
        </mxCell>
        <mxCell id="edge_monto" style="endArrow=none;html=1;" parent="1" source="ent_tx" target="attr_monto" edge="1">
          <mxGeometry relative="1" as="geometry" />
        </mxCell>
        <mxCell id="attr_comercio" value="comercio" style="ellipse;whiteSpace=wrap;html=1;" parent="1" vertex="1">
          <mxGeometry x="1160" y="430" width="90" height="40" as="geometry" />
        </mxCell>
        <mxCell id="edge_comercio" style="endArrow=none;html=1;" parent="1" source="ent_tx" target="attr_comercio" edge="1">
          <mxGeometry relative="1" as="geometry" />
        </mxCell>
  <mxCell id="attr_idem" value="idempotency_key" style="ellipse;whiteSpace=wrap;html=1;" parent="1" vertex="1">
          <mxGeometry x="920" y="530" width="140" height="44" as="geometry" />
        </mxCell>
  <mxCell id="edge_idem" style="endArrow=none;html=1;" parent="1" source="ent_tx" target="attr_idem" edge="1">
          <mxGeometry relative="1" as="geometry" />
        </mxCell>
        <mxCell id="attr_status" value="status" style="ellipse;whiteSpace=wrap;html=1;" parent="1" vertex="1">
          <mxGeometry x="820" y="420" width="80" height="40" as="geometry" />
        </mxCell>
        <mxCell id="edge_status" style="endArrow=none;html=1;" parent="1" source="ent_tx" target="attr_status" edge="1">
          <mxGeometry relative="1" as="geometry" />
        </mxCell>
        <mxCell id="attr_aut_num" value="autorizacion_numero" style="ellipse;whiteSpace=wrap;html=1;" parent="1" vertex="1">
          <mxGeometry x="760" y="556" width="150" height="44" as="geometry" />
        </mxCell>
        <mxCell id="edge_aut_num" style="endArrow=none;html=1;" parent="1" source="ent_tx" target="attr_aut_num" edge="1">
          <mxGeometry relative="1" as="geometry" />
        </mxCell>
  <mxCell id="attr_detalle" value="detalle_denegacion" style="ellipse;whiteSpace=wrap;html=1;" parent="1" vertex="1">
          <mxGeometry x="1140" y="512" width="150" height="44" as="geometry" />
        </mxCell>
  <mxCell id="edge_detalle" style="endArrow=none;html=1;" parent="1" source="ent_tx" target="attr_detalle" edge="1">
          <mxGeometry relative="1" as="geometry" />
        </mxCell>
  <mxCell id="attr_creada_tx" value="creada_en" style="ellipse;whiteSpace=wrap;html=1;" parent="1" vertex="1">
          <mxGeometry x="1050" y="600" width="100" height="40" as="geometry" />
        </mxCell>
  <mxCell id="edge_creada_tx" style="endArrow=none;html=1;" parent="1" source="ent_tx" target="attr_creada_tx" edge="1">
          <mxGeometry relative="1" as="geometry" />
        </mxCell>
        <mxCell id="rel_registra" value="registra" style="shape=rhombus;whiteSpace=wrap;html=1;fontStyle=1;" parent="1" vertex="1">
          <mxGeometry x="620" y="310" width="120" height="90" as="geometry" />
        </mxCell>
        <mxCell id="edge_tarjeta_rel" style="endArrow=none;html=1;strokeWidth=1;" parent="1" source="ent_tarjeta" target="rel_registra" edge="1">
          <mxGeometry relative="1" as="geometry" />
        </mxCell>
        <mxCell id="edge_rel_tx" style="endArrow=none;html=1;strokeWidth=1;" parent="1" source="rel_registra" target="ent_tx" edge="1">
          <mxGeometry relative="1" as="geometry" />
        </mxCell>
      </root>
    </mxGraphModel>
  </diagram>
</mxfile>
